<?xml version="1.0" standalone="no"?>
<!DOCTYPE svg PUBLIC "-//W3C//DTD SVG 20010904//EN"
 "http://www.w3.org/TR/2001/REC-SVG-20010904/DTD/svg10.dtd">
<svg version="1.0" xmlns="http://www.w3.org/2000/svg"
 width="1500.000000pt" height="450.000000pt" viewBox="0 0 1500.000000 450.000000"
 preserveAspectRatio="xMidYMid meet">

<g transform="translate(0.000000,450.000000) scale(0.100000,-0.100000)"
fill="#000000" stroke="none">
<path d="M750 3415 l0 -965 45 0 45 0 0 965 0 965 -45 0 -45 0 0 -965z"/>
<path d="M920 3415 l0 -965 40 0 40 0 0 965 0 965 -40 0 -40 0 0 -965z"/>
<path d="M1090 3415 l0 -965 40 0 40 0 0 965 0 965 -40 0 -40 0 0 -965z"/>
<path d="M1260 3415 l0 -965 40 0 40 0 0 380 0 380 378 -2 377 -3 3 -377 2
-378 40 0 40 0 0 965 0 965 -40 0 -40 0 0 -375 0 -375 -380 0 -380 0 0 375 0
375 -40 0 -40 0 0 -965z m840 85 l0 -40 -380 0 -380 0 0 40 0 40 380 0 380 0
0 -40z m0 -170 l0 -40 -380 0 -380 0 0 40 0 40 380 0 380 0 0 -40z"/>
<path d="M2260 3415 l0 -965 45 0 45 0 0 965 0 965 -45 0 -45 0 0 -965z"/>
<path d="M2430 3415 l0 -965 45 0 45 0 0 965 0 965 -45 0 -45 0 0 -965z"/>
<path d="M2600 3415 l0 -965 40 0 40 0 0 965 0 965 -40 0 -40 0 0 -965z"/>
<path d="M5080 4191 c-279 -61 -470 -221 -557 -466 l-28 -80 -3 -597 -3 -598
41 0 40 0 0 558 c0 623 2 642 67 772 75 150 234 271 420 322 116 31 319 31
427 0 202 -58 363 -183 445 -346 61 -119 61 -117 61 -738 l0 -568 45 0 45 0 0
540 c0 601 -1 588 65 616 46 19 233 19 279 0 69 -29 66 -1 66 -608 l0 -548 45
0 46 0 -3 558 c-3 541 -4 558 -24 592 -44 75 -122 105 -274 104 -97 -1 -127
-6 -201 -38 -12 -5 -18 -1 -23 17 -3 14 -8 32 -11 39 -6 16 39 39 110 58 53
13 190 13 257 -1 70 -15 164 -65 194 -104 54 -71 54 -73 54 -671 l0 -554 45 0
45 0 0 528 c0 556 -4 610 -45 692 -25 50 -94 119 -145 145 -134 69 -351 80
-492 24 -63 -25 -65 -25 -84 12 -19 37 -17 38 63 69 82 31 178 43 283 37 257
-16 432 -139 485 -342 13 -50 15 -148 15 -612 l0 -553 40 0 40 0 0 568 c0 618
-1 630 -58 736 -43 82 -138 169 -234 215 -123 58 -212 75 -372 68 -135 -5
-208 -22 -292 -65 l-41 -21 -29 30 c-27 28 -27 29 -8 44 28 21 160 71 229 86
92 20 295 17 385 -5 205 -51 359 -165 440 -326 66 -131 64 -108 68 -747 l3
-583 40 0 39 0 0 568 c0 637 -2 650 -69 787 -56 113 -121 189 -220 256 -146
99 -274 139 -471 146 -181 7 -294 -16 -436 -86 l-100 -50 -95 47 c-128 65
-213 84 -384 88 -110 3 -158 0 -225 -15z"/>
<path d="M8021 4169 c-382 -49 -685 -336 -757 -715 -20 -107 -15 -294 11 -394
25 -98 106 -256 169 -331 128 -150 295 -252 494 -301 115 -28 304 -29 407 -2
l70 19 3 44 c3 39 1 43 -15 37 -96 -38 -233 -52 -349 -37 -468 62 -788 481
-710 930 40 230 171 427 362 547 140 87 272 124 449 124 398 0 702 -224 808
-593 19 -67 21 -104 24 -559 l4 -488 40 0 40 0 -3 503 -4 502 -27 88 c-82 265
-247 452 -487 552 -175 73 -349 97 -529 74z"/>
<path d="M2910 3290 l0 -840 40 0 40 0 0 840 0 840 -40 0 -40 0 0 -840z"/>
<path d="M3077 4123 c-4 -3 -7 -381 -7 -840 l0 -833 45 0 45 0 0 840 0 840
-38 0 c-21 0 -42 -3 -45 -7z"/>
<path d="M3240 3290 l0 -840 45 0 45 0 0 840 0 840 -45 0 -45 0 0 -840z"/>
<path d="M3410 3290 l0 -840 445 0 445 0 0 40 0 40 -402 2 -403 3 0 40 0 40
403 3 402 2 0 40 0 40 -405 0 -405 0 0 40 0 40 405 0 405 0 0 45 0 45 -405 0
-405 0 0 105 0 105 380 0 380 0 0 40 0 40 -377 2 -378 3 0 40 0 40 378 3 377
2 0 40 0 40 -377 2 -378 3 0 40 0 40 378 3 377 2 0 40 0 40 -380 0 -381 0 3
103 3 102 403 3 402 2 0 40 0 40 -402 2 -403 3 0 40 0 40 403 3 402 2 0 40 0
40 -405 0 -405 0 0 40 0 40 403 2 402 3 3 43 3 42 -445 0 -446 0 0 -840z"/>
<path d="M9280 3291 l0 -841 40 0 40 0 0 760 c0 418 3 760 8 760 4 -1 205
-343 446 -760 l439 -760 49 0 c43 0 48 2 39 18 -6 9 -223 386 -484 837 l-474
820 -51 3 -52 3 0 -840z"/>
<path d="M9499 4093 c11 -21 229 -398 484 -838 l464 -800 51 -3 51 -3 -487
840 -486 841 -48 0 -48 0 19 -37z"/>
<path d="M9682 4121 c2 -5 219 -382 483 -840 l480 -831 48 0 c26 0 47 3 47 6
0 3 -217 381 -482 840 l-483 834 -48 0 c-27 0 -47 -4 -45 -9z"/>
<path d="M9880 4124 c0 -4 217 -382 481 -840 l481 -834 49 0 49 0 0 840 0 840
-40 0 -40 0 -2 -765 -3 -765 -441 762 -440 763 -47 3 c-26 2 -47 0 -47 -4z"/>
<path d="M10520 3707 l0 -423 36 -67 c19 -36 39 -69 45 -72 5 -4 9 180 9 489
l0 496 -45 0 -45 0 0 -423z"/>
<path d="M10690 3553 l1 -578 39 -65 40 -65 0 643 0 642 -40 0 -40 0 0 -577z"/>
<path d="M11122 4088 l3 -43 628 -3 627 -2 0 45 0 45 -631 0 -630 0 3 -42z"/>
<path d="M12570 3290 l0 -840 40 0 40 0 0 840 0 840 -40 0 -40 0 0 -840z"/>
<path d="M12740 3290 l0 -840 40 0 40 0 0 840 0 840 -40 0 -40 0 0 -840z"/>
<path d="M12900 3290 l0 -840 45 0 45 0 0 840 0 840 -45 0 -45 0 0 -840z"/>
<path d="M13070 3290 l0 -840 45 0 45 0 0 335 0 335 295 0 295 0 0 -335 0
-335 40 0 40 0 0 840 0 840 -40 0 -40 0 0 -295 0 -295 -295 0 -295 0 0 295 0
295 -45 0 -45 0 0 -840z m675 125 l0 -40 -292 -3 -293 -2 0 45 0 45 293 -2
292 -3 0 -40z m0 -170 l0 -40 -292 -3 -293 -2 0 45 0 45 293 -2 292 -3 0 -40z"/>
<path d="M13910 3290 l0 -840 45 0 45 0 0 840 0 840 -45 0 -45 0 0 -840z"/>
<path d="M14080 3290 l0 -840 45 0 45 0 0 840 0 840 -45 0 -45 0 0 -840z"/>
<path d="M14250 3290 l0 -840 40 0 40 0 0 840 0 840 -40 0 -40 0 0 -840z"/>
<path d="M5140 4034 c-56 -11 -158 -47 -213 -76 -118 -63 -206 -168 -249 -297
-21 -64 -22 -82 -26 -638 l-3 -573 45 0 46 0 0 550 c0 368 4 566 11 602 33
154 139 263 316 325 70 24 92 27 213 27 150 1 211 -12 314 -67 126 -67 205
-180 226 -322 5 -40 10 -296 10 -592 l0 -523 40 0 40 0 0 558 c0 595 -3 628
-51 725 -64 127 -182 224 -332 273 -71 23 -101 27 -222 30 -77 1 -151 0 -165
-2z"/>
<path d="M8000 3995 c-268 -60 -461 -229 -546 -480 -33 -96 -44 -267 -24 -368
28 -144 105 -283 213 -383 80 -75 154 -118 264 -157 83 -30 96 -31 238 -32
119 0 163 4 213 19 l62 19 0 42 0 43 -62 -21 c-52 -17 -88 -21 -203 -21 -127
-1 -147 2 -216 26 -206 73 -337 198 -402 387 -105 305 25 639 303 779 116 58
183 73 315 73 305 0 542 -160 633 -426 l27 -80 3 -482 3 -483 46 0 45 0 -4
473 c-5 441 -6 477 -26 550 -55 200 -188 366 -363 451 -52 25 -123 52 -159 61
-94 23 -280 28 -360 10z"/>
<path d="M11120 3920 l0 -40 630 0 630 0 0 40 0 40 -630 0 -630 0 0 -40z"/>
<path d="M5195 3870 c-198 -23 -334 -135 -365 -299 -6 -32 -10 -267 -10 -587
l0 -534 45 0 45 0 0 563 0 563 26 53 c30 60 88 107 168 137 41 15 77 19 181
19 158 -1 220 -21 295 -94 81 -78 80 -70 80 -698 l0 -543 40 0 41 0 -3 578 -3
577 -23 47 c-52 104 -140 173 -258 202 -77 19 -184 25 -259 16z"/>
<path d="M8010 3825 c-200 -49 -348 -191 -406 -390 -22 -79 -22 -231 1 -311
58 -200 202 -333 411 -380 98 -21 264 -15 344 13 55 20 55 20 58 65 l3 46 -63
-25 c-46 -19 -88 -27 -155 -31 -335 -18 -551 191 -530 511 15 229 175 395 413
429 90 13 224 -7 307 -47 73 -34 165 -118 200 -182 55 -101 57 -127 57 -620
l0 -453 46 0 45 0 -4 468 c-4 507 -4 509 -63 631 -36 74 -151 188 -227 224
-130 63 -308 84 -437 52z"/>
<path d="M11120 3750 l0 -40 630 0 630 0 0 40 0 40 -630 0 -630 0 0 -40z"/>
<path d="M9450 3098 l0 -648 40 0 40 0 0 575 c0 635 5 581 -60 688 -20 32 -20
30 -20 -615z"/>
<path d="M5173 3700 c-50 -11 -112 -41 -135 -67 -48 -52 -48 -58 -48 -638 l0
-545 40 0 39 0 3 543 c3 606 1 582 73 613 47 19 234 19 280 0 66 -28 65 -15
65 -616 l0 -540 40 0 40 0 0 558 c0 546 0 558 -21 591 -27 45 -55 67 -109 86
-53 19 -208 28 -267 15z"/>
<path d="M8023 3655 c-184 -57 -296 -240 -266 -434 27 -173 128 -280 302 -321
78 -18 231 -8 304 20 l57 23 0 43 0 43 -57 -27 c-48 -22 -76 -27 -159 -30
-170 -7 -268 38 -329 148 -28 51 -30 63 -30 155 0 116 14 154 80 221 66 66
125 89 225 89 153 -1 242 -47 298 -154 l32 -63 0 -459 0 -459 45 0 45 0 0 435
c0 283 -4 452 -11 487 -40 189 -191 299 -408 297 -47 0 -105 -6 -128 -14z"/>
<path d="M11460 3055 l0 -605 40 0 40 0 0 605 0 605 -40 0 -40 0 0 -605z"/>
<path d="M11630 3055 l0 -605 40 0 40 0 0 605 0 605 -40 0 -40 0 0 -605z"/>
<path d="M11800 3055 l0 -605 40 0 40 0 0 605 0 605 -40 0 -40 0 0 -605z"/>
<path d="M11960 3055 l0 -605 45 0 45 0 0 605 0 605 -45 0 -45 0 0 -605z"/>
<path d="M9620 2948 l0 -498 40 0 40 0 0 424 0 425 -40 73 -40 73 0 -497z"/>
<path d="M889 2205 c-242 -46 -483 -189 -632 -375 -85 -107 -168 -272 -203
-405 -39 -146 -39 -364 0 -510 56 -214 191 -426 356 -558 361 -289 851 -315
1239 -63 80 51 211 172 258 239 l32 44 -29 21 c-16 12 -33 22 -38 22 -5 0 -21
-18 -36 -39 -38 -55 -150 -160 -221 -208 -172 -116 -340 -167 -550 -166 -263
1 -492 97 -680 288 -124 125 -202 263 -252 447 -25 90 -25 366 0 456 50 184
128 322 252 447 189 191 417 288 680 288 216 0 400 -58 571 -178 60 -43 224
-208 224 -226 0 -15 20 -10 51 12 l29 20 -44 58 c-134 174 -343 310 -565 368
-122 31 -327 40 -442 18z"/>
<path d="M900 2036 c-94 -20 -155 -43 -238 -87 -215 -115 -367 -300 -438 -534
-25 -81 -28 -105 -28 -245 0 -140 3 -164 28 -245 91 -301 329 -531 631 -611
108 -29 343 -27 448 4 88 25 195 76 277 132 52 35 220 202 220 218 0 4 -15 17
-33 29 l-32 23 -40 -48 c-208 -247 -504 -347 -815 -277 -109 26 -258 106 -346
188 -172 161 -256 353 -256 587 0 234 84 426 256 587 166 156 417 235 639 204
204 -29 398 -136 516 -285 l44 -56 31 19 c17 11 32 24 34 29 5 15 -147 170
-212 217 -82 57 -189 110 -278 136 -94 27 -312 35 -408 15z"/>
<path d="M4835 1960 c-130 -21 -287 -83 -402 -161 -79 -53 -204 -188 -254
-275 -147 -252 -176 -510 -85 -777 102 -298 352 -526 663 -604 104 -26 333
-23 438 5 89 25 221 85 293 133 68 47 178 155 228 225 57 80 119 210 146 309
31 114 31 345 0 457 -93 339 -354 592 -694 673 -80 19 -255 27 -333 15z m323
-100 c380 -91 642 -421 645 -810 3 -476 -371 -848 -848 -843 -325 3 -614 191
-751 488 -97 211 -100 481 -6 688 110 242 317 414 572 477 106 26 279 26 388
0z"/>
<path d="M4819 1786 c-371 -78 -630 -417 -606 -791 12 -187 84 -342 222 -481
73 -74 107 -99 181 -137 132 -67 238 -91 384 -84 89 3 133 10 195 31 309 104
508 364 523 682 16 354 -200 657 -543 764 -90 28 -262 35 -356 16z m312 -92
c225 -56 396 -218 475 -449 24 -70 28 -95 27 -200 0 -102 -4 -132 -26 -200
-71 -216 -226 -371 -442 -442 -68 -22 -98 -26 -200 -26 -105 -1 -130 3 -200
27 -187 64 -314 173 -398 342 -49 97 -69 182 -70 294 -1 293 185 549 468 645
106 36 247 39 366 9z"/>
<path d="M4860 1623 c-196 -33 -382 -193 -450 -386 -31 -86 -38 -240 -16 -327
54 -218 235 -397 443 -440 87 -18 254 -8 328 20 167 64 291 188 355 355 28 74
39 241 20 328 -42 206 -221 388 -435 442 -54 14 -185 18 -245 8z m213 -88
c275 -58 447 -335 382 -614 -22 -91 -60 -156 -136 -232 -243 -244 -651 -177
-803 132 -96 197 -63 411 89 569 130 134 288 183 468 145z"/>
<path d="M4845 1446 c-113 -36 -208 -119 -259 -225 -29 -61 -31 -74 -31 -176
0 -103 2 -114 32 -178 100 -211 346 -300 561 -202 69 31 166 128 197 197 105
231 -2 490 -238 577 -67 24 -196 28 -262 7z m261 -96 c160 -77 234 -262 172
-427 -29 -80 -112 -162 -193 -192 -75 -29 -185 -26 -257 7 -61 26 -137 103
-168 167 -35 74 -35 198 1 275 34 74 76 120 140 155 70 38 101 45 185 41 49
-2 86 -10 120 -26z"/>
<path d="M10470 1911 c-292 -65 -525 -261 -633 -532 -104 -261 -82 -557 60
-798 47 -79 166 -202 252 -260 220 -149 508 -199 754 -131 36 11 37 13 37 55
l0 44 -57 -21 c-49 -18 -81 -22 -203 -22 -172 -1 -253 18 -388 90 -200 105
-328 254 -398 459 -39 115 -46 311 -15 438 60 253 240 459 484 557 215 86 486
75 702 -29 166 -80 280 -192 361 -356 79 -162 78 -148 82 -708 l3 -498 42 3
42 3 0 480 c-1 460 -2 484 -23 567 -83 334 -309 562 -642 649 -121 31 -341 36
-460 10z"/>
<path d="M13870 1915 c-204 -42 -400 -158 -520 -308 -68 -85 -145 -242 -172
-352 -16 -67 -22 -121 -22 -210 0 -133 12 -200 56 -323 72 -200 251 -387 461
-482 158 -72 376 -98 537 -66 113 23 120 28 120 77 0 35 -2 40 -17 33 -102
-44 -285 -56 -421 -28 -294 60 -534 277 -624 564 -20 65 -23 96 -23 225 0 129
3 161 23 225 121 388 497 625 905 571 291 -39 518 -194 636 -435 75 -153 74
-143 80 -701 l6 -500 43 -3 43 -3 -3 493 c-4 467 -5 497 -26 570 -51 185 -104
280 -227 403 -129 129 -276 208 -458 246 -109 22 -298 24 -397 4z"/>
<path d="M895 1861 c-144 -40 -241 -98 -343 -205 -124 -131 -192 -302 -192
-486 0 -118 22 -209 76 -318 82 -166 230 -296 409 -359 74 -26 91 -28 230 -28
138 0 156 2 223 27 106 38 206 102 279 175 87 88 90 97 53 123 l-30 21 -78
-78 c-244 -246 -627 -258 -872 -27 -88 83 -136 156 -174 264 -27 76 -30 98
-30 200 0 98 4 126 26 190 40 113 74 167 162 256 62 62 99 90 158 118 252 121
533 72 730 -127 l78 -78 30 21 c37 27 33 35 -55 124 -76 76 -173 137 -277 174
-100 35 -297 42 -403 13z"/>
<path d="M2100 1039 l0 -840 43 3 42 3 3 838 2 837 -45 0 -45 0 0 -841z"/>
<path d="M2270 1040 l0 -840 40 0 40 0 0 840 0 840 -40 0 -40 0 0 -840z"/>
<path d="M2440 1040 l0 -840 40 0 40 0 0 840 0 840 -40 0 -40 0 0 -840z"/>
<path d="M2610 1040 l0 -840 40 0 40 0 0 340 0 340 295 0 295 0 0 -340 0 -340
40 0 40 0 0 840 0 840 -40 0 -40 0 0 -290 0 -290 -295 0 -295 0 0 290 0 290
-40 0 -40 0 0 -840z m670 130 l0 -40 -295 0 -295 0 0 40 0 40 295 0 295 0 0
-40z m0 -170 l0 -40 -295 0 -295 0 0 40 0 40 295 0 295 0 0 -40z"/>
<path d="M3450 1040 l0 -840 40 0 40 0 0 840 0 840 -40 0 -40 0 0 -840z"/>
<path d="M3612 1043 l3 -838 43 -3 42 -3 0 840 0 841 -45 0 -45 0 2 -837z"/>
<path d="M3782 1043 l3 -838 40 0 40 0 3 838 2 837 -45 0 -45 0 2 -837z"/>
<path d="M6080 1040 l0 -840 40 0 40 0 0 800 0 800 498 0 c545 0 568 -2 687
-61 132 -65 236 -176 292 -311 31 -76 42 -229 23 -321 -29 -140 -156 -309
-280 -372 -129 -65 -145 -68 -407 -73 l-243 -4 0 -45 0 -46 233 6 c188 4 246
9 308 25 289 77 465 293 486 596 19 297 -192 581 -497 665 -71 20 -99 21 -627
21 l-553 0 0 -840z"/>
<path d="M7950 1040 l0 -840 40 0 40 0 0 800 0 800 493 0 c555 0 576 -2 705
-70 343 -178 420 -620 154 -889 -74 -75 -131 -112 -231 -150 -63 -24 -78 -25
-308 -29 l-243 -4 0 -45 0 -46 233 6 c263 7 317 16 445 78 196 95 317 273 344
508 14 126 -4 228 -63 349 -58 121 -177 240 -299 300 -147 72 -147 72 -762 72
l-548 0 0 -840z"/>
<path d="M11802 1043 l3 -838 43 -3 42 -3 0 840 0 841 -45 0 -45 0 2 -837z"/>
<path d="M11970 1039 l0 -840 43 3 42 3 3 838 2 837 -45 0 -45 0 0 -841z"/>
<path d="M12140 1040 l0 -840 40 0 40 0 0 840 0 840 -40 0 -40 0 0 -840z"/>
<path d="M12310 1040 l0 -840 350 0 350 0 0 45 0 45 -310 0 -310 0 0 40 0 40
310 0 310 0 0 45 0 45 -310 0 -310 0 0 40 0 40 310 0 310 0 0 40 0 40 -307 2
-308 3 -3 628 -2 627 -40 0 -40 0 0 -840z"/>
<path d="M10588 1758 c-351 -32 -627 -321 -645 -673 -8 -138 14 -242 74 -365
39 -79 60 -109 132 -180 98 -98 195 -154 327 -191 114 -32 290 -33 392 -1 l72
23 0 40 c0 38 -2 41 -22 35 -115 -35 -142 -40 -238 -40 -309 0 -560 184 -636
465 -21 78 -23 242 -5 319 42 176 169 337 331 418 114 57 206 75 340 69 193
-10 328 -65 445 -180 81 -81 115 -134 154 -240 l26 -72 5 -490 5 -490 43 -3
42 -3 0 435 c0 256 -4 466 -11 512 -55 400 -398 652 -831 612z"/>
<path d="M13974 1759 c-354 -32 -629 -317 -650 -674 -10 -162 29 -309 117
-440 178 -266 513 -383 832 -290 57 16 57 17 57 56 0 21 -2 39 -5 39 -3 0 -38
-9 -78 -20 -145 -40 -275 -36 -420 15 -205 71 -351 229 -403 435 -25 101 -16
293 19 384 72 183 209 316 399 384 66 23 87 26 218 26 131 0 153 -3 225 -27
213 -71 361 -226 422 -442 14 -51 17 -129 21 -533 l4 -472 39 0 40 0 -3 488
c-4 546 -4 538 -79 689 -133 265 -422 412 -755 382z"/>
<path d="M994 1710 c-332 -46 -547 -397 -436 -716 134 -384 612 -494 899 -207
35 35 63 66 63 70 0 5 -14 18 -31 29 l-30 21 -62 -62 c-102 -101 -214 -142
-365 -132 -70 4 -96 11 -159 42 -350 173 -349 657 2 831 61 30 87 37 157 41
151 10 263 -31 365 -132 l62 -62 30 20 c17 10 31 23 31 28 0 5 -28 37 -63 72
-123 123 -293 180 -463 157z"/>
<path d="M6250 961 l0 -761 40 0 40 0 0 715 0 716 433 -3 432 -3 68 -33 c319
-157 325 -569 10 -724 l-67 -33 -238 -3 -238 -4 0 -44 0 -44 198 0 c300 0 389
27 518 155 101 100 144 204 144 343 -1 198 -146 386 -350 454 -62 21 -85 22
-527 26 l-463 3 0 -760z"/>
<path d="M8115 1708 c-3 -7 -4 -348 -3 -758 l3 -745 43 -3 42 -3 0 716 0 716
433 -3 c428 -3 432 -3 482 -26 113 -53 219 -167 246 -265 16 -59 14 -166 -5
-230 -32 -111 -144 -220 -263 -257 -57 -17 -93 -20 -279 -20 l-214 0 0 -45 0
-45 198 0 c130 0 219 5 263 14 256 55 428 293 392 543 -25 176 -164 335 -343
395 -62 21 -84 22 -528 26 -376 3 -463 1 -467 -10z"/>
<path d="M10595 1594 c-228 -35 -415 -198 -470 -409 -19 -75 -19 -211 0 -293
50 -210 217 -358 451 -399 99 -17 226 -8 317 23 46 16 47 17 47 59 l0 43 -67
-23 c-95 -33 -200 -41 -292 -21 -222 47 -352 181 -383 395 -22 150 18 282 117
389 99 106 208 152 363 152 265 0 460 -159 492 -401 5 -40 10 -262 10 -491 l0
-418 40 0 40 0 0 448 c0 355 -3 461 -15 517 -53 249 -258 415 -532 429 -48 2
-101 2 -118 0z"/>
<path d="M13960 1590 c-331 -52 -535 -372 -450 -704 11 -43 32 -101 47 -129
61 -113 197 -213 343 -253 100 -27 265 -24 355 7 l70 24 3 44 c3 39 1 43 -15
37 -109 -43 -143 -50 -238 -50 -274 -1 -462 152 -496 402 -29 214 68 400 257
494 78 39 91 42 187 46 124 5 194 -8 286 -54 91 -45 180 -139 211 -221 36 -97
40 -151 40 -600 l0 -433 40 0 40 0 0 458 c0 368 -3 469 -15 520 -45 191 -198
346 -390 396 -77 20 -205 27 -275 16z"/>
<path d="M6415 1538 c-3 -7 -4 -310 -3 -673 l3 -660 43 -3 42 -3 0 630 0 631
323 0 c317 0 323 -1 373 -24 83 -39 144 -126 144 -207 0 -57 -30 -126 -70
-163 -70 -63 -92 -68 -327 -74 l-213 -4 0 -40 0 -40 223 4 223 3 66 33 c117
58 178 154 178 281 0 123 -67 224 -188 283 l-67 33 -372 3 c-300 3 -374 1
-378 -10z"/>
<path d="M8282 878 l3 -673 40 0 40 0 3 628 2 627 323 0 c290 0 326 -2 362
-19 98 -44 149 -119 149 -216 -1 -99 -44 -164 -139 -207 -45 -20 -69 -22 -257
-26 l-208 -4 0 -40 0 -40 223 4 223 3 66 33 c122 60 184 165 176 298 -8 121
-77 216 -197 273 l-56 26 -378 3 -377 3 2 -673z"/>
<path d="M10560 1414 c-74 -20 -126 -52 -184 -113 -77 -83 -91 -124 -91 -266
0 -109 2 -125 26 -176 86 -183 339 -266 564 -185 60 21 60 21 63 65 3 39 1 43
-15 36 -117 -49 -118 -49 -223 -49 -94 0 -112 3 -166 28 -120 54 -169 136
-169 281 0 81 3 95 29 143 59 106 157 163 279 163 41 0 87 -3 103 -7 90 -22
186 -102 214 -181 11 -30 15 -136 17 -495 l4 -458 39 0 40 0 0 454 c0 428 -1
458 -20 520 -58 187 -294 298 -510 240z"/>
<path d="M13964 1420 c-113 -24 -215 -104 -266 -208 -31 -63 -33 -73 -33 -177
0 -100 3 -116 29 -173 72 -156 260 -243 462 -213 41 6 98 21 125 32 47 21 49
23 49 61 0 34 -3 39 -17 33 -169 -70 -314 -71 -432 -4 -151 87 -187 311 -71
457 58 74 142 113 243 113 42 0 95 -5 119 -11 60 -16 131 -64 163 -109 53 -78
55 -97 55 -578 l0 -443 40 0 40 0 0 458 c0 507 -1 518 -63 608 -39 56 -121
116 -192 139 -60 19 -194 28 -251 15z"/>
<path d="M6580 789 l0 -590 43 3 42 3 3 548 2 548 229 -3 c209 -3 231 -5 250
-22 27 -24 27 -68 0 -92 -19 -17 -41 -19 -220 -22 l-199 -3 0 -40 0 -39 203 1
c129 0 215 4 237 12 49 17 80 67 80 131 0 66 -25 107 -82 135 -42 20 -59 21
-316 21 l-272 0 0 -591z"/>
<path d="M8450 789 l0 -590 43 3 42 3 3 548 2 547 210 0 c232 0 274 -8 285
-53 8 -32 -9 -65 -41 -77 -14 -6 -108 -10 -210 -10 l-184 0 0 -41 0 -40 218 3
c196 3 220 5 246 23 35 24 56 71 56 127 0 57 -28 100 -82 127 -42 20 -59 21
-316 21 l-272 0 0 -591z"/>
</g>
</svg>
